<?xml version="1.0" encoding="UTF-8" standalone="no"?>
<!-- Created with Inkscape (http://www.inkscape.org/) -->

<svg
   xmlns:dc="http://purl.org/dc/elements/1.1/"
   xmlns:cc="http://creativecommons.org/ns#"
   xmlns:rdf="http://www.w3.org/1999/02/22-rdf-syntax-ns#"
   xmlns:svg="http://www.w3.org/2000/svg"
   xmlns="http://www.w3.org/2000/svg"
   xmlns:sodipodi="http://sodipodi.sourceforge.net/DTD/sodipodi-0.dtd"
   xmlns:inkscape="http://www.inkscape.org/namespaces/inkscape"
   id="svg2"
   version="1.1"
   inkscape:version="0.47 r22583"
   width="284.2424"
   height="77.14463"
   xml:space="preserve"
   sodipodi:docname="2445.0.TU-KL-HKS.pdf"><metadata
     id="metadata8"><rdf:RDF><cc:Work
         rdf:about=""><dc:format>image/svg+xml</dc:format><dc:type
           rdf:resource="http://purl.org/dc/dcmitype/StillImage" /><dc:title></dc:title></cc:Work></rdf:RDF></metadata><defs
     id="defs6"><inkscape:perspective
       sodipodi:type="inkscape:persp3d"
       inkscape:vp_x="0 : 0.5 : 1"
       inkscape:vp_y="0 : 1000 : 0"
       inkscape:vp_z="1 : 0.5 : 1"
       inkscape:persp3d-origin="0.5 : 0.33333333 : 1"
       id="perspective10" /></defs><sodipodi:namedview
     pagecolor="#ffffff"
     bordercolor="#666666"
     borderopacity="1"
     objecttolerance="10"
     gridtolerance="10"
     guidetolerance="10"
     inkscape:pageopacity="0"
     inkscape:pageshadow="2"
     inkscape:window-width="640"
     inkscape:window-height="480"
     id="namedview4"
     showgrid="false"
     inkscape:zoom="1.8092632"
     inkscape:cx="142.82112"
     inkscape:cy="44.866611"
     inkscape:window-x="0"
     inkscape:window-y="0"
     inkscape:window-maximized="0"
     inkscape:current-layer="g12" /><g
     id="g12"
     inkscape:groupmode="layer"
     inkscape:label="2445.0.TU-KL-HKS"
     transform="matrix(1.25,0,0,-1.25,0,658.9331)"><path
       d="m 6.81641,519.82959 -9.8e-4,-7.62109 50.33057,0 0.0068,7.62109 -25.30664,7.31689 -25.02978,-7.31689 z"
       style="fill:#2056ae;fill-opacity:1;fill-rule:nonzero;stroke:none"
       id="path14" /><path
       d="m 13.35693,510.13672 10.146,0 -13.38574,-44.66846 -10.11719,0 13.35693,44.66846 z"
       style="fill:#2056ae;fill-opacity:1;fill-rule:nonzero;stroke:none"
       id="path16" /><path
       d="m 52.32324,501.03564 0,9.12159 -11.20996,0 0,-9.12159 11.20996,0 z"
       style="fill:#2056ae;fill-opacity:1;fill-rule:nonzero;stroke:none"
       id="path18" /><path
       d="m 52.32568,483.10693 0,9.1211 -11.20947,0 0,-9.1211 11.20947,0 z"
       style="fill:#ed1b29;fill-opacity:1;fill-rule:nonzero;stroke:none"
       id="path20" /><path
       d="m 52.32324,465.47656 0,9.12158 -11.20996,0 0,-9.12158 11.20996,0 z"
       style="fill:#2056ae;fill-opacity:1;fill-rule:nonzero;stroke:none"
       id="path22" /><path
       d="m 66.73584,497.16797 9.21533,0 -0.10156,-1.40088 -3.77539,0 0,-12.52393 -1.60352,0 0,12.52393 -3.73486,0 0,1.40088 z"
       style="fill:#ed1b29;fill-opacity:1;fill-rule:nonzero;stroke:#ed1b29;stroke-width:0.19899;stroke-linecap:butt;stroke-linejoin:miter;stroke-miterlimit:4;stroke-opacity:1;stroke-dasharray:none"
       id="path24" /><path
       d="m 75.48682,492.72949 5.22363,0 -0.15332,-0.94726 -3.91406,0 0,-3.09229 3.27343,0 0,-0.98877 -3.27343,0 0,-3.46875 4.20654,0 0,-0.98926 -5.36279,0 0,9.48633 z"
       style="fill:#2056ae;fill-opacity:1;fill-rule:nonzero;stroke:#2056ae;stroke-width:0.19899;stroke-linecap:butt;stroke-linejoin:miter;stroke-miterlimit:4;stroke-opacity:1;stroke-dasharray:none"
       id="path26" /><path
       d="m 88.38574,492.14453 -0.61279,-0.73828 c -0.57129,0.41797 -1.11426,0.59912 -1.81104,0.59912 -1.10058,0 -1.89453,-0.57129 -2.354,-1.64355 -0.27881,-0.64112 -0.4043,-1.40723 -0.4043,-2.53565 0,-0.91943 0.08399,-1.4624 0.30664,-2.01953 0.4878,-1.19824 1.47657,-1.75537 2.56299,-1.75537 0.71045,0 1.25391,0.18115 1.8667,0.61279 l 0.61279,-0.79394 c -0.76611,-0.50147 -1.71337,-0.78028 -2.66015,-0.78028 -2.32666,0 -3.92871,2.00635 -3.92871,4.90381 0,2.84131 1.6997,4.93115 4.0122,4.93115 0.91944,0 1.75489,-0.2788 2.40967,-0.78027 z"
       style="fill:#2056ae;fill-opacity:1;fill-rule:nonzero;stroke:#2056ae;stroke-width:0.19899;stroke-linecap:butt;stroke-linejoin:miter;stroke-miterlimit:4;stroke-opacity:1;stroke-dasharray:none"
       id="path28" /><path
       d="m 89.87598,492.79932 1.11474,0 0,-3.99805 4.02588,0 0,3.99805 1.14209,0 0,-9.55616 -1.14209,0 0,4.625 -4.02588,0 0,-4.625 -1.11474,0 0,9.55616 z"
       style="fill:#2056ae;fill-opacity:1;fill-rule:nonzero;stroke:#2056ae;stroke-width:0.19899;stroke-linecap:butt;stroke-linejoin:miter;stroke-miterlimit:4;stroke-opacity:1;stroke-dasharray:none"
       id="path30" /><path
       d="m 98.16455,492.77148 1.32324,0 3.17627,-6.0874 c 0.34815,-0.68262 0.8916,-1.99219 0.8916,-1.99219 0,0 -0.11181,1.64405 -0.12548,2.89747 l -0.042,5.18212 1.12842,0 0,-9.52832 -1.19775,0 -3.06494,5.83692 c -0.4458,0.86377 -0.89161,1.76904 -1.08643,2.28467 0.06982,-0.80811 0.11133,-1.64405 0.12549,-2.59131 l 0.05566,-5.53028 -1.18408,0 0,9.52832 z"
       style="fill:#2056ae;fill-opacity:1;fill-rule:nonzero;stroke:#2056ae;stroke-width:0.19899;stroke-linecap:butt;stroke-linejoin:miter;stroke-miterlimit:4;stroke-opacity:1;stroke-dasharray:none"
       id="path32" /><path
       d="m 107.02393,492.79932 1.11474,0 0,-9.55616 -1.11474,0 0,9.55616 z"
       style="fill:#2056ae;fill-opacity:1;fill-rule:nonzero;stroke:#2056ae;stroke-width:0.19899;stroke-linecap:butt;stroke-linejoin:miter;stroke-miterlimit:4;stroke-opacity:1;stroke-dasharray:none"
       id="path34" /><path
       d="m 116.21777,492.08887 -0.50146,-0.82178 c -0.91943,0.59912 -1.5044,0.80811 -2.32617,0.80811 -1.19825,0 -1.90869,-0.59913 -1.90869,-1.57422 0,-0.76612 0.45996,-1.21192 1.58789,-1.56006 l 1.10058,-0.34863 c 0.84961,-0.26465 1.30957,-0.51514 1.68555,-0.96094 0.39014,-0.4458 0.62695,-1.08643 0.62695,-1.68555 0,-0.8916 -0.48779,-1.72754 -1.32324,-2.29834 -0.62695,-0.4043 -1.26758,-0.58545 -2.14551,-0.58545 -1.14209,0 -2.11719,0.27881 -3.06445,0.86377 l 0.50146,0.8916 c 0.79395,-0.57129 1.60205,-0.82177 2.56299,-0.82177 0.72461,0 1.11475,0.11132 1.51856,0.41796 0.45947,0.34815 0.68261,0.80762 0.68261,1.36524 0,0.84961 -0.55713,1.43457 -1.71338,1.78271 l -0.96142,0.29248 c -0.86328,0.26465 -1.32324,0.45996 -1.69922,0.8501 -0.39014,0.41748 -0.59912,0.94727 -0.59912,1.56006 0,1.62988 1.23975,2.74414 3.09228,2.74414 1.03125,0 1.97852,-0.30664 2.88379,-0.91943 z"
       style="fill:#2056ae;fill-opacity:1;fill-rule:nonzero;stroke:#2056ae;stroke-width:0.19899;stroke-linecap:butt;stroke-linejoin:miter;stroke-miterlimit:4;stroke-opacity:1;stroke-dasharray:none"
       id="path36" /><path
       d="m 124.32471,492.14453 -0.6128,-0.73828 c -0.57128,0.41797 -1.11425,0.59912 -1.81103,0.59912 -1.10059,0 -1.89453,-0.57129 -2.354,-1.64355 -0.27881,-0.64112 -0.4043,-1.40723 -0.4043,-2.53565 0,-0.91943 0.084,-1.4624 0.30664,-2.01953 0.48779,-1.19824 1.47656,-1.75537 2.56299,-1.75537 0.71045,0 1.2539,0.18115 1.8667,0.61279 l 0.61328,-0.79394 c -0.7666,-0.50147 -1.71387,-0.78028 -2.66065,-0.78028 -2.32666,0 -3.92871,2.00635 -3.92871,4.90381 0,2.84131 1.69971,4.93115 4.01221,4.93115 0.91943,0 1.75488,-0.2788 2.40967,-0.78027 z"
       style="fill:#2056ae;fill-opacity:1;fill-rule:nonzero;stroke:#2056ae;stroke-width:0.19899;stroke-linecap:butt;stroke-linejoin:miter;stroke-miterlimit:4;stroke-opacity:1;stroke-dasharray:none"
       id="path38" /><path
       d="m 125.89893,492.79932 1.11425,0 0,-3.99805 4.02588,0 0,3.99805 1.14209,0 0,-9.55616 -1.14209,0 0,4.625 -4.02588,0 0,-4.625 -1.11425,0 0,9.55616 z"
       style="fill:#2056ae;fill-opacity:1;fill-rule:nonzero;stroke:#2056ae;stroke-width:0.19899;stroke-linecap:butt;stroke-linejoin:miter;stroke-miterlimit:4;stroke-opacity:1;stroke-dasharray:none"
       id="path40" /><path
       d="m 134.42383,492.72949 5.22363,0 -0.15283,-0.94726 -3.91455,0 0,-3.09229 3.27344,0 0,-0.98877 -3.27344,0 0,-3.46875 4.20703,0 0,-0.98926 -5.36328,0 0,9.48633 z"
       style="fill:#2056ae;fill-opacity:1;fill-rule:nonzero;stroke:#2056ae;stroke-width:0.19899;stroke-linecap:butt;stroke-linejoin:miter;stroke-miterlimit:4;stroke-opacity:1;stroke-dasharray:none"
       id="path42" /><path
       d="m 70.5625,479.70752 1.60254,0 0,-13.91357 -1.60254,0 0,13.91357 m 6.77686,0 2.02734,0 -5.3291,-6.53076 5.29053,-7.38281 -2.02735,0 -5.05859,7.3623 5.09717,6.55127 z"
       style="fill:#2056ae;fill-opacity:1;fill-rule:nonzero;stroke:#2056ae;stroke-width:0.19899;stroke-linecap:butt;stroke-linejoin:miter;stroke-miterlimit:4;stroke-opacity:1;stroke-dasharray:none"
       id="path44" /><path
       d="m 88.03418,479.70752 4.38281,-13.91357 -1.79541,0 -1.25488,4.27929 -4.94287,0 -1.27442,-4.27929 -1.60253,0 4.42138,13.91357 2.06592,0 m -3.16602,-8.27539 4.09278,0 c 0,0 -1.04248,3.46826 -1.39014,4.66504 l -0.63721,2.1499 -0.65625,-2.04834 c -0.07714,-0.28418 -1.40918,-4.7666 -1.40918,-4.7666 z"
       style="fill:#2056ae;fill-opacity:1;fill-rule:nonzero;stroke:#2056ae;stroke-width:0.19899;stroke-linecap:butt;stroke-linejoin:miter;stroke-miterlimit:4;stroke-opacity:1;stroke-dasharray:none"
       id="path46" /><path
       d="m 95.40869,479.70752 1.54444,0 0,-13.91357 -1.54444,0 0,13.91357 z"
       style="fill:#2056ae;fill-opacity:1;fill-rule:nonzero;stroke:#2056ae;stroke-width:0.19899;stroke-linecap:butt;stroke-linejoin:miter;stroke-miterlimit:4;stroke-opacity:1;stroke-dasharray:none"
       id="path48" /><path
       d="m 109.01904,478.67285 -0.69531,-1.19629 c -1.27441,0.87207 -2.08496,1.17627 -3.22412,1.17627 -1.66065,0 -2.64502,-0.87207 -2.64502,-2.29199 0,-1.11572 0.63721,-1.76465 2.20068,-2.27148 l 1.52539,-0.50733 c 1.17774,-0.38525 1.81495,-0.75049 2.33643,-1.39941 0.54053,-0.64893 0.86865,-1.58203 0.86865,-2.4541 0,-1.29786 -0.67578,-2.51514 -1.83398,-3.34668 -0.86914,-0.58789 -1.75733,-0.85157 -2.97363,-0.85157 -1.58301,0 -2.93458,0.40577 -4.24756,1.25733 l 0.69531,1.29834 c 1.1001,-0.83203 2.22021,-1.19678 3.55225,-1.19678 1.0039,0 1.54492,0.16211 2.10449,0.6084 0.6372,0.50683 0.94629,1.17627 0.94629,1.98779 0,1.23731 -0.77246,2.08887 -2.375,2.59619 l -1.33203,0.42578 c -1.19727,0.38526 -1.83448,0.66944 -2.35547,1.23731 -0.54053,0.6084 -0.83008,1.37891 -0.83008,2.27148 0,2.37305 1.71826,3.99561 4.28613,3.99561 1.42871,0 2.74121,-0.44629 3.99658,-1.33887 z"
       style="fill:#2056ae;fill-opacity:1;fill-rule:nonzero;stroke:#2056ae;stroke-width:0.19899;stroke-linecap:butt;stroke-linejoin:miter;stroke-miterlimit:4;stroke-opacity:1;stroke-dasharray:none"
       id="path50" /><path
       d="m 112.47363,479.60596 7.24024,0 -0.21241,-1.37891 -5.42529,0 0,-4.50293 4.53711,0 0,-1.43994 -4.53711,0 0,-5.05029 5.83057,0 0,-1.43994 -7.43311,0 0,13.81201 z"
       style="fill:#2056ae;fill-opacity:1;fill-rule:nonzero;stroke:#2056ae;stroke-width:0.19899;stroke-linecap:butt;stroke-linejoin:miter;stroke-miterlimit:4;stroke-opacity:1;stroke-dasharray:none"
       id="path52" /><path
       d="m 123.36133,479.68701 3.08935,0 c 1.81495,0 2.70313,-0.34472 3.33985,-0.89209 0.59863,-0.50732 1.31299,-1.44043 1.31299,-2.9209 0,-2.29199 -1.40918,-3.81298 -3.51368,-3.81298 -0.0581,0 -0.11572,0 -0.19336,0 0.61817,-0.52735 1.06202,-1.17627 1.33252,-1.56153 0.27002,-0.38574 0.61768,-0.9331 1.08106,-1.62256 0.48291,-0.75049 1.96924,-3.083 1.96924,-3.083 l -1.98877,0 c -0.3086,0.72998 -0.44385,0.99365 -1.02295,1.92675 -0.83008,1.31836 -1.64112,2.53516 -2.35547,3.44776 -0.52148,0.68994 -0.81104,0.87256 -1.46729,0.89258 l 0,-6.26709 -1.58349,0 0,13.89306 m 1.60254,-1.39941 0,-5.19239 1.40967,0 c 1.17773,0 1.91113,0.20313 2.39404,0.70997 0.44385,0.42627 0.67578,1.17675 0.67578,2.08935 0,0.9126 -0.54053,1.80518 -1.29395,2.10938 -0.42431,0.18261 -0.9458,0.28369 -1.66015,0.28369 l -1.52539,0 z"
       style="fill:#2056ae;fill-opacity:1;fill-rule:nonzero;stroke:#2056ae;stroke-width:0.19899;stroke-linecap:butt;stroke-linejoin:miter;stroke-miterlimit:4;stroke-opacity:1;stroke-dasharray:none"
       id="path54" /><path
       d="m 143.07275,478.67285 -0.69482,-1.19629 c -1.27441,0.87207 -2.08496,1.17627 -3.22412,1.17627 -1.66065,0 -2.64502,-0.87207 -2.64502,-2.29199 0,-1.11572 0.63672,-1.76465 2.20068,-2.27148 l 1.52539,-0.50733 c 1.17774,-0.38525 1.81494,-0.75049 2.33594,-1.39941 0.54102,-0.64893 0.86914,-1.58203 0.86914,-2.4541 0,-1.29786 -0.67578,-2.51514 -1.83447,-3.34668 -0.86865,-0.58789 -1.75684,-0.85157 -2.97315,-0.85157 -1.583,0 -2.93457,0.40577 -4.24755,1.25733 l 0.69482,1.29834 c 1.10059,-0.83203 2.2207,-1.19678 3.55273,-1.19678 1.00391,0 1.54444,0.16211 2.1045,0.6084 0.6372,0.50683 0.9458,1.17627 0.9458,1.98779 0,1.23731 -0.77198,2.08887 -2.37451,2.59619 l -1.33204,0.42578 c -1.19726,0.38526 -1.83447,0.66944 -2.35546,1.23731 -0.54102,0.6084 -0.83057,1.37891 -0.83057,2.27148 0,2.37305 1.71875,3.99561 4.28613,3.99561 1.42871,0 2.7417,-0.44629 3.99658,-1.33887 z"
       style="fill:#2056ae;fill-opacity:1;fill-rule:nonzero;stroke:#2056ae;stroke-width:0.19899;stroke-linecap:butt;stroke-linejoin:miter;stroke-miterlimit:4;stroke-opacity:1;stroke-dasharray:none"
       id="path56" /><path
       d="m 146.48926,479.70752 1.58301,0 0,-12.51416 5.23193,0 -0.21191,-1.39941 -6.60303,0 0,13.91357 z"
       style="fill:#2056ae;fill-opacity:1;fill-rule:nonzero;stroke:#2056ae;stroke-width:0.19899;stroke-linecap:butt;stroke-linejoin:miter;stroke-miterlimit:4;stroke-opacity:1;stroke-dasharray:none"
       id="path58" /><path
       d="m 161.7793,479.70752 4.38281,-13.91357 -1.7959,0 -1.25488,4.27929 -4.94238,0 -1.27442,-4.27929 -1.60254,0 4.42139,13.91357 2.06592,0 m -3.16651,-8.27539 4.09326,0 c 0,0 -1.04296,3.46826 -1.39013,4.66504 l -0.63721,2.1499 -0.65674,-2.04834 c -0.0772,-0.28418 -1.40918,-4.7666 -1.40918,-4.7666 z"
       style="fill:#2056ae;fill-opacity:1;fill-rule:nonzero;stroke:#2056ae;stroke-width:0.19899;stroke-linecap:butt;stroke-linejoin:miter;stroke-miterlimit:4;stroke-opacity:1;stroke-dasharray:none"
       id="path60" /><path
       d="m 169.05664,479.70752 1.56397,0 0,-8.90381 c 0,-0.95361 0.0581,-1.74463 0.13525,-2.12988 0.23144,-1.09522 1.19727,-1.70362 2.68359,-1.70362 1.10059,0 1.93067,0.3042 2.33643,0.87208 0.40527,0.56787 0.50195,1.07519 0.50195,2.37304 l 0,9.49219 1.56397,0 0,-9.67481 c 0,-1.98779 -0.19336,-2.65673 -1.0044,-3.40722 -0.81054,-0.73047 -1.87256,-1.0752 -3.4751,-1.0752 -2.04638,0 -3.30126,0.68994 -3.91943,2.0083 -0.28955,0.6084 -0.38623,0.89209 -0.38623,2.4336 l 0,9.71533 z"
       style="fill:#2056ae;fill-opacity:1;fill-rule:nonzero;stroke:#2056ae;stroke-width:0.19899;stroke-linecap:butt;stroke-linejoin:miter;stroke-miterlimit:4;stroke-opacity:1;stroke-dasharray:none"
       id="path62" /><path
       d="m 180.92969,479.70752 8.76513,0 -0.0962,-1.39941 -3.59131,0 0,-12.51416 -1.52539,0 0,12.51416 -3.55224,0 0,1.39941 z"
       style="fill:#2056ae;fill-opacity:1;fill-rule:nonzero;stroke:#2056ae;stroke-width:0.19899;stroke-linecap:butt;stroke-linejoin:miter;stroke-miterlimit:4;stroke-opacity:1;stroke-dasharray:none"
       id="path64" /><path
       d="m 192.84082,479.60596 7.24023,0 -0.2124,-1.37891 -5.42529,0 0,-4.50293 4.53711,0 0,-1.43994 -4.53711,0 0,-5.05029 5.83057,0 0,-1.43994 -7.43311,0 0,13.81201 z"
       style="fill:#2056ae;fill-opacity:1;fill-rule:nonzero;stroke:#2056ae;stroke-width:0.19899;stroke-linecap:butt;stroke-linejoin:miter;stroke-miterlimit:4;stroke-opacity:1;stroke-dasharray:none"
       id="path66" /><path
       d="m 203.729,479.68701 3.08887,0 c 1.81494,0 2.70313,-0.34472 3.34033,-0.89209 0.59864,-0.50732 1.3125,-1.44043 1.3125,-2.9209 0,-2.29199 -1.40918,-3.81298 -3.51367,-3.81298 -0.0581,0 -0.11572,0 -0.19287,0 0.61768,-0.52735 1.06152,-1.17627 1.33203,-1.56153 0.27051,-0.38574 0.61768,-0.9331 1.08106,-1.62256 0.48291,-0.75049 1.96923,-3.083 1.96923,-3.083 l -1.98828,0 c -0.30908,0.72998 -0.44433,0.99365 -1.02343,1.92675 -0.83008,1.31836 -1.64112,2.53516 -2.35547,3.44776 -0.52149,0.68994 -0.81104,0.87256 -1.46729,0.89258 l 0,-6.26709 -1.58301,0 0,13.89306 m 1.60205,-1.39941 0,-5.19239 1.40967,0 c 1.17774,0 1.91162,0.20313 2.39405,0.70997 0.44433,0.42627 0.67578,1.17675 0.67578,2.08935 0,0.9126 -0.54053,1.80518 -1.29346,2.10938 -0.4248,0.18261 -0.94629,0.28369 -1.66064,0.28369 l -1.5254,0 z"
       style="fill:#2056ae;fill-opacity:1;fill-rule:nonzero;stroke:#2056ae;stroke-width:0.19899;stroke-linecap:butt;stroke-linejoin:miter;stroke-miterlimit:4;stroke-opacity:1;stroke-dasharray:none"
       id="path68" /><path
       d="m 215.35059,479.66699 1.83398,0 4.40234,-8.86328 c 0.48243,-0.99414 1.23536,-2.90039 1.23536,-2.90039 0,0 -0.1543,2.39307 -0.17334,4.21875 l -0.0581,7.54492 1.56397,0 0,-13.87304 -1.66065,0 -4.24756,8.49804 c -0.61767,1.25781 -1.23535,2.57617 -1.50586,3.32617 0.0967,-1.17627 0.1543,-2.39306 0.17383,-3.77246 l 0.0772,-8.05175 -1.64111,0 0,13.87304 z"
       style="fill:#2056ae;fill-opacity:1;fill-rule:nonzero;stroke:#2056ae;stroke-width:0.19899;stroke-linecap:butt;stroke-linejoin:miter;stroke-miterlimit:4;stroke-opacity:1;stroke-dasharray:none"
       id="path70" /><path
       d="m 146.45264,497.15381 1.7705,0 0,-8.91065 c 0,-0.9541 0.0654,-1.7456 0.15284,-2.13134 0.2622,-1.09619 1.35547,-1.70508 3.03857,-1.70508 1.24561,0 2.18555,0.30469 2.64453,0.87305 0.45899,0.56835 0.56836,1.07568 0.56836,2.37451 l 0,9.49951 1.77051,0 0,-9.68213 c 0,-1.98926 -0.21826,-2.65918 -1.13623,-3.41016 -0.91846,-0.73047 -2.12061,-1.07568 -3.93457,-1.07568 -2.31738,0 -3.73828,0.69043 -4.4375,2.00977 -0.32813,0.60888 -0.43701,0.89306 -0.43701,2.43554 l 0,9.72266 z"
       style="fill:#ed1b29;fill-opacity:1;fill-rule:nonzero;stroke:#ed1b29;stroke-width:0.17908999;stroke-linecap:butt;stroke-linejoin:miter;stroke-miterlimit:4;stroke-opacity:1;stroke-dasharray:none"
       id="path72" /><path
       d="m 158.87549,492.75781 1.4248,0 3.42041,-6.0874 c 0.375,-0.68262 0.95996,-1.99219 0.95996,-1.99219 0,0 -0.12011,1.64356 -0.13476,2.89746 l -0.0454,5.18213 1.21533,0 0,-9.52832 -1.29004,0 -3.30029,5.83692 c -0.47998,0.86328 -0.95996,1.76904 -1.16992,2.28418 0.0747,-0.80762 0.11963,-1.64356 0.13476,-2.59082 l 0.0601,-5.53028 -1.2749,0 0,9.52832 z"
       style="fill:#2056ae;fill-opacity:1;fill-rule:nonzero;stroke:#2056ae;stroke-width:0.19899;stroke-linecap:butt;stroke-linejoin:miter;stroke-miterlimit:4;stroke-opacity:1;stroke-dasharray:none"
       id="path74" /><path
       d="m 168.08594,492.78564 1.20019,0 0,-9.55615 -1.20019,0 0,9.55615 z"
       style="fill:#2056ae;fill-opacity:1;fill-rule:nonzero;stroke:#2056ae;stroke-width:0.19899;stroke-linecap:butt;stroke-linejoin:miter;stroke-miterlimit:4;stroke-opacity:1;stroke-dasharray:none"
       id="path76" /><path
       d="m 170.47119,492.78564 1.33496,0 2.1753,-6.12939 c 0.2998,-0.83594 0.55468,-1.85254 0.5996,-2.13135 0.0601,0.23682 0.27051,0.96143 0.63038,1.99219 l 2.20507,6.26855 1.26026,0 -3.52539,-9.55615 -1.21533,0 -3.46485,9.55615 z"
       style="fill:#2056ae;fill-opacity:1;fill-rule:nonzero;stroke:#2056ae;stroke-width:0.19899;stroke-linecap:butt;stroke-linejoin:miter;stroke-miterlimit:4;stroke-opacity:1;stroke-dasharray:none"
       id="path78" /><path
       d="m 179.92188,492.71582 5.625,0 -0.16504,-0.94727 -4.21485,0 0,-3.09228 3.5249,0 0,-0.98926 -3.5249,0 0,-3.46826 4.53028,0 0,-0.98926 -5.77539,0 0,9.48633 z"
       style="fill:#2056ae;fill-opacity:1;fill-rule:nonzero;stroke:#2056ae;stroke-width:0.19899;stroke-linecap:butt;stroke-linejoin:miter;stroke-miterlimit:4;stroke-opacity:1;stroke-dasharray:none"
       id="path80" /><path
       d="m 187.37695,492.77148 2.40039,0 c 1.41016,0 2.1001,-0.23681 2.59522,-0.61279 0.46484,-0.34814 1.02002,-0.98926 1.02002,-2.00586 0,-1.57422 -1.09522,-2.61914 -2.73047,-2.61914 -0.0449,0 -0.0898,0 -0.1499,0 0.47998,-0.36181 0.82519,-0.80762 1.03515,-1.07226 0.20996,-0.26465 0.47998,-0.64112 0.83985,-1.11475 0.37549,-0.51514 1.53027,-2.11719 1.53027,-2.11719 l -1.54492,0 c -0.24024,0.50147 -0.34522,0.68262 -0.79541,1.32324 -0.64502,0.90577 -1.2749,1.74122 -1.83008,2.36817 -0.40478,0.47363 -0.62988,0.59912 -1.14014,0.61279 l 0,-4.3042 -1.22998,0 0,9.54199 m 1.24512,-0.96093 0,-3.56641 1.09522,0 c 0.91503,0 1.48486,0.13965 1.85986,0.48779 0.34521,0.29248 0.52539,0.80811 0.52539,1.43457 0,0.62696 -0.41992,1.23975 -1.00537,1.44873 -0.33008,0.12549 -0.73487,0.19532 -1.29004,0.19532 l -1.18506,0 z"
       style="fill:#2056ae;fill-opacity:1;fill-rule:nonzero;stroke:#2056ae;stroke-width:0.19899;stroke-linecap:butt;stroke-linejoin:miter;stroke-miterlimit:4;stroke-opacity:1;stroke-dasharray:none"
       id="path82" /><path
       d="m 201.68799,492.0752 -0.54004,-0.82178 c -0.98975,0.59863 -1.62012,0.80762 -2.50488,0.80762 -1.29053,0 -2.05518,-0.59864 -2.05518,-1.57374 0,-0.7666 0.49512,-1.21191 1.70996,-1.56054 l 1.18506,-0.34815 c 0.91504,-0.26465 1.41016,-0.51513 1.81494,-0.96093 0.42041,-0.4458 0.67529,-1.08692 0.67529,-1.68555 0,-0.8916 -0.5249,-1.72754 -1.42529,-2.29883 -0.6748,-0.40381 -1.36474,-0.58496 -2.31006,-0.58496 -1.22998,0 -2.28027,0.27881 -3.30029,0.86377 l 0.54004,0.8916 c 0.85498,-0.57129 1.7251,-0.82178 2.76025,-0.82178 0.78028,0 1.2002,0.11133 1.63526,0.41748 0.49511,0.34864 0.73486,0.80811 0.73486,1.36524 0,0.8501 -0.6001,1.43506 -1.84521,1.7832 l -1.03467,0.29248 c -0.93018,0.26465 -1.4253,0.45947 -1.83057,0.84961 -0.41992,0.41797 -0.64502,0.94727 -0.64502,1.56055 0,1.62939 1.33545,2.74414 3.33057,2.74414 1.10986,0 2.12988,-0.30664 3.10498,-0.91943 z"
       style="fill:#2056ae;fill-opacity:1;fill-rule:nonzero;stroke:#2056ae;stroke-width:0.19899;stroke-linecap:butt;stroke-linejoin:miter;stroke-miterlimit:4;stroke-opacity:1;stroke-dasharray:none"
       id="path84" /><path
       d="m 203.99805,492.78564 1.20019,0 0,-9.55615 -1.20019,0 0,9.55615 z"
       style="fill:#2056ae;fill-opacity:1;fill-rule:nonzero;stroke:#2056ae;stroke-width:0.19899;stroke-linecap:butt;stroke-linejoin:miter;stroke-miterlimit:4;stroke-opacity:1;stroke-dasharray:none"
       id="path86" /><path
       d="m 206.50293,492.78564 6.81055,0 -0.0747,-0.96142 -2.79053,0 0,-8.59473 -1.18506,0 0,8.59473 -2.76025,0 0,0.96142 z"
       style="fill:#2056ae;fill-opacity:1;fill-rule:nonzero;stroke:#2056ae;stroke-width:0.19899;stroke-linecap:butt;stroke-linejoin:miter;stroke-miterlimit:4;stroke-opacity:1;stroke-dasharray:none"
       id="path88" /><path
       d="m 217.72363,492.78564 3.40528,-9.55615 -1.39502,0 -0.9751,2.93946 -3.84033,0 -0.98975,-2.93946 -1.24512,0 3.43506,9.55615 1.60498,0 m -2.37011,2.0337 c 0.43505,0 0.78027,-0.32032 0.78027,-0.71045 0,-0.40381 -0.33008,-0.73828 -0.76514,-0.73828 -0.43506,0 -0.78027,0.33447 -0.78027,0.73828 0,0.39013 0.34521,0.71045 0.76514,0.71045 m -0.0899,-7.71729 3.18018,0 c 0,0 -0.81006,2.38184 -1.08008,3.2041 l -0.49512,1.47656 -0.50976,-1.40722 c -0.0601,-0.19483 -1.09522,-3.27344 -1.09522,-3.27344 m 3.19531,7.71729 c 0.41993,0 0.77979,-0.32032 0.77979,-0.71045 0,-0.40381 -0.34473,-0.73828 -0.76514,-0.73828 -0.43506,0 -0.79492,0.33447 -0.79492,0.73828 0,0.39013 0.34522,0.71045 0.78027,0.71045 z"
       style="fill:#2056ae;fill-opacity:1;fill-rule:nonzero;stroke:#2056ae;stroke-width:0.19899;stroke-linecap:butt;stroke-linejoin:miter;stroke-miterlimit:4;stroke-opacity:1;stroke-dasharray:none"
       id="path90" /><path
       d="m 220.48389,492.78564 6.81054,0 -0.0752,-0.96142 -2.79004,0 0,-8.59473 -1.18506,0 0,8.59473 -2.76025,0 0,0.96142 z"
       style="fill:#2056ae;fill-opacity:1;fill-rule:nonzero;stroke:#2056ae;stroke-width:0.19899;stroke-linecap:butt;stroke-linejoin:miter;stroke-miterlimit:4;stroke-opacity:1;stroke-dasharray:none"
       id="path92" /></g></svg>